<svg fill="#000" width="800" height="800" viewBox="144 144 512 512" xmlns="http://www.w3.org/2000/svg"><path d="m609.75 286.84-.32422-2.3594c-.52344-3.7266-4.0117-6.3359-7.6641-5.8203-3.7266.51562-6.3281 3.9453-5.8203 7.6641l.32422 2.3672c.78906 5.7383-.058594 23.59-.87891 26.383l-22.605 47.746c-.70703 1.4766-1.9336 2.0273-2.6094 2.2266-.67969.18359-2.0273.41406-3.4062-.44922-1.832-1.1484-2.4102-3.4492-1.5-5.3789l1.957-3.7188c.003906-.007812.003906-.015625.007812-.023438l2.4609-4.4453c1.8203-3.2891.62109-7.4219-2.6562-9.2422-3.3047-1.8125-7.4219-.62891-9.25 2.6562l-4.3945 7.9453c-.078125.14062-.070313.29688-.14062.4375l-5.3789 10.223c-.95313 1.8125-3.2227 2.5078-4.9922 1.5781-1.8203-.96484-2.5156-3.2227-1.5703-5.0312l9.7891-18.641c1.7539-3.3281.46484-7.4414-2.8555-9.1836-3.3477-1.7422-7.4336-.44922-9.1836 2.8555l-9.7969 18.66c-.10547.20313-.085937.42969-.18359.63281-.09375.16406-.25.26953-.33203.44531-.48047 1.0273-1.3438 1.4609-1.8125 1.6094-.46484.18359-1.3945.34766-2.418-.16797l-2.8398-1.4961c-1.0117-.54688-1.4023-1.4102-1.5352-1.875-.14062-.46484-.28906-1.3945.25781-2.375l10.613-19.156c1.8203-3.2891.62891-7.4219-2.6562-9.25-3.3047-1.8125-7.4414-.64062-9.25 2.6562l-10.613 19.156c-.089843.16406-.078125.35547-.16406.51953-.066407.10938-.17188.17188-.23438.28516l-5.8867 11.219c-.039063.070312-.03125.15234-.066406.22266-.039063.078125-.039063.17578-.074219.25781-.32031.73438-.55469 1.4805-.60547 2.2422-.003906.035156-.023437.0625-.027343.10156-.33203 6.6445-4.8242 12.438-11.184 14.434-8.4141 2.5742-17.34-2.0781-19.953-10.48-2.6172-8.3867 2.0859-17.348 10.48-19.961 1.3281-.41406 2.7148-.4375 4.0898-.49219l-6.7734 13.531c-1.6875 3.3555-.32422 7.4414 3.0312 9.1172.98047.49609 2.0195.73047 3.0391.73047 2.5.0 4.8984-1.3789 6.0859-3.7695l10.754-21.465c.003906-.003907.007812-.003907.011719-.007813l21.148-41.145c2.2188-4.3164 1.6289-9.5-1.4883-13.211-3.1211-3.7031-8.1133-5.1992-12.754-3.7266l-43.93 13.684c-4.3828 1.3711-9.0195.95312-13.094-1.1953-4.0703-2.1328-7.0586-5.7227-8.4297-10.105-2.8242-9.0508 2.25-18.707 11.301-21.531 9.043-2.8633 18.715 2.2578 21.531 11.316l.20703-.027343c.050782.40234.0.79688.125 1.1953.90625 2.9141 3.5938 4.7734 6.4922 4.7734.66406.0 1.3555-.097657 2.0273-.30859l44.344-13.816c1.8867-.58984 3.4219-1.9688 4.2109-3.7773l24.273-55.828c1.5039-3.4453-.074218-7.457-3.5195-8.9531-3.4609-1.5352-7.457.066406-8.9531 3.5195l-23.035 52.973-35.375 11.027c-6.7773-12.883-21.988-19.555-36.379-15.086-16.211 5.0508-25.293 22.355-20.238 38.57 2.4492 7.8477 7.8047 14.281 15.086 18.102 2.5 1.3125 5.125 2.2656 7.8047 2.8477l-6.832 9.4023-82.801-27.383c-3.5625-1.1719-7.4141.76172-8.5938 4.3281-1.1797 3.5625.75391 7.4141 4.3281 8.5938l78.676 26.02-49.461 68.098c-2.2109 3.0391-1.5273 7.2891 1.5117 9.5 1.2031.87891 2.5977 1.3125 3.9844 1.3125 2.1094.0 4.1836-.98047 5.5117-2.8047l30.25-41.656c7.5 8.1562 14.047 18.168 19.414 30.078 7.5312 16.707 11.84 35.027 12.812 54.441.80469 16.043.47266 40.355-5.6875 65.004-2.9375 11.773-1.3711 22.621 4.6758 32.27 7.0977 11.328 19.223 18.801 29.68 23.449-15.211 4.2852-36.961 8.0703-53.395 1.4961-8.9023-3.5391-15.086-9.6641-18.906-18.734-.089844-.21484-.26953-.35547-.37891-.55859 10.887-15.48 19.406-32.168 21.223-48.25 1.3203-11.742.99609-23.535-.9375-35.043-3.4805-20.527-21.156-35.891-42.508-36.535-61.609-1.7109-73.566-41.023-74.738-45.578l-.83594-21.918c-.375-9.9141 6.0625-18.699 15.637-21.367 6.1875-1.7188 12.391-2.9883 18.418-3.7773 3.7266-.48047 6.3516-3.9023 5.8633-7.625-.48828-3.7266-3.9023-6.4336-7.625-5.8633-6.668.87109-13.492 2.2656-20.305 4.1602-8.5586 2.3789-15.488 7.8086-20 14.832-1.2305-1.0312-2.5-2.0312-3.9609-2.793-7.3008-3.7852-16.043-3.2305-22.777 1.4297-16.059 11.051-29.031 27.695-38.555 49.465-7.7812 17.754-12.238 37.137-13.277 57.578-.85547 17.039-.49609 42.848 6.0703 69.121 2.0352 8.1562 1.0625 15.246-2.9727 21.707-10.969 17.539-40.324 23.914-40.613 23.98-2.8906.61328-5.0664 3.0234-5.3633 5.9609-.30859 2.9375 1.3125 5.7305 4.0195 6.9258 1.4961.66406 28.707 12.457 56.266 12.457 8.8867.0 17.812-1.2305 25.918-4.4492 9.6211-3.832 17.082-10.113 22.418-18.578 6.4609 7.3633 13.859 15.02 22.434 23.027 8.7852 8.2188 19.945 12.305 31.141 12.305 11.773.0 23.582-4.5352 32.684-13.52 7.625-7.5312 15.781-16.348 23.43-25.824 5.3711 9.2148 13.066 16.062 23.234 20.109 8.1133 3.2383 17.039 4.4492 25.934 4.4492 27.551.0 54.754-11.773 56.25-12.438 2.707-1.1953 4.3281-3.9844 4.0195-6.9258-.30078-2.9375-2.4766-5.3477-5.3633-5.9609-.28906-.066407-29.637-6.4258-40.613-23.98-4.0352-6.4609-5.0156-13.57-2.9727-21.723 6.5586-26.258 6.9258-52 6.0703-68.973-1.0547-21.125-5.7617-41.09-13.992-59.34-6.4062-14.211-14.426-26.07-23.723-35.648l13.664-18.812 12.102 4.0039c-6.1562 7.4453-8.5898 17.73-5.5039 27.625 2.3516 7.5391 7.4883 13.703 14.473 17.371 4.293 2.2578 8.9766 3.3867 13.695 3.3867 2.957.0 5.9297-.44922 8.8281-1.3438 9.7617-3.043 16.867-11.043 19.457-20.676.5625.39062.96094.95312 1.5742 1.2773l2.8633 1.5117c2.3984 1.2617 5.0664 1.8945 7.7461 1.8945 1.207.0 2.3867-.32422 3.5703-.58984 1.5742 3.0469 3.7734 5.7969 7.0312 7.5156 2.5586 1.3281 5.2969 1.9766 8.0039 1.9766 4.5469.0 8.9648-1.8359 12.234-5.0938.91797.89062 1.6875 1.9062 2.8203 2.6055 2.8398 1.7617 6.0938 2.6719 9.375 2.6719 1.6953.0 3.3867-.25 5.0391-.73047 4.8594-1.4453 8.8867-4.8828 11.043-9.4648l22.605-47.73c2.5703-5.4336 2.8867-28.141 2.0742-34.062zM271.09 573.87c-16.41 6.543-38.172 2.7578-53.395-1.5117 10.453-4.6523 22.578-12.125 29.688-23.449 6.0352-9.6328 7.6055-20.492 4.668-32.254-6.168-24.66-6.4922-49.043-5.6875-65.137.95312-18.801 5.0391-36.57 12.148-52.828 8.5039-19.414 19.871-34.113 33.812-43.711 2.6641-1.8125 5.9375-2.0586 8.8125-.54688 2.8398 1.4609 4.5586 4.2695 4.6094 7.9531l.15234-.007813c-.042969.97266-.17578 1.9258-.13672 2.9141l.8125 21.266-.40625 1.0742c-4.9648 13.336-12.723 25.293-19.648 35.242-15.57 22.336-22.621 51.848-19.332 80.98.78906 6.957 2.1602 13.816 4.0859 20.359 2.8711 9.7656 8.9219 20.625 17.922 32.434-3.8555 8.1758-9.7305 13.898-18.105 17.223zm104.12 6.2266c-12.523 12.371-32.285 12.77-44.973.94531-25.328-23.684-41.203-44.656-45.902-60.652-1.7031-5.8125-2.9219-11.891-3.6211-18.07-2.9219-25.891 3.2617-52.016 16.973-71.68 5.2812-7.5742 11.012-16.277 15.867-25.977 9.707 16.324 32.195 39.844 81.43 41.188 14.434.44922 26.656 11.062 29.047 25.211 1.7344 10.262 2.0078 20.793.83984 31.258-3.0195 26.711-28.668 57.035-49.66 77.777zm83.895-256.96 11.09-15.273 38.105-11.867-16.797 32.68c-4.6641-.97656-9.4961-.84375-14.133.50391z"/></svg>